<?xml version="1.0" encoding="UTF-8"?>
<svg xmlns="http://www.w3.org/2000/svg" version="1.1" viewBox="0 0 600 600">
  <!-- Generator: Adobe Illustrator 29.3.1, SVG Export Plug-In . SVG Version: 2.1.0 Build 151)  -->
  <defs>
    <style>
      .st0 {
        fill: #fff;
      }

      .st1 {
        fill: #f91101;
      }

      .st2 {
        display: none;
      }
    </style>
  </defs>
  <g id="Layer_1" class="st2">
    <g>
      <path class="st0" d="M666-50.3v731.8H-65.9V-50.3h731.8ZM166.8,2.7c-39.3,1-73,3-106.9,24.5C18.3,53.5,1.5,99.1,1.2,147.1c1.2,99.4-1.9,199.2.8,298.4.7,28.2,0,47.8,11.3,74.4,25.8,60.9,85.9,78.2,147.5,77.4,97.9-2.1,197.2,3,294.9-.8,33.3-1.3,56.1-3.5,85-21.4,47-29,59.4-79.2,58.9-131.7V147.1c-.4-50.2-20.2-98.8-65.2-124-29.9-16.8-62.7-20.1-96.5-20.6-90.3,1.6-180.9-2.1-271.1.2Z"/>
      <g>
        <path d="M166.8,2.7c90.3-2.4,180.8,1.4,271.1-.2,33.8.5,66.5,3.9,96.5,20.6,45,25.2,64.8,73.7,65.2,124v296.4c.5,52.5-11.9,102.7-58.9,131.7-28.9,17.8-51.7,20.1-85,21.4-97.7,3.8-196.9-1.3-294.9.8-61.7.8-121.7-16.5-147.5-77.4-11.3-26.6-10.5-46.2-11.3-74.4-2.6-99.3.5-199-.8-298.4.3-47.9,17-93.6,58.6-119.9C93.8,5.8,127.5,3.8,166.8,2.7ZM509.5,93.4c-45,3.2-114.3,28.1-155.8,47-37.2,17-65.9,39.6-96.1,66.6-3.5,3.1-6.3,7.4-10.7,9.3l-62.5-8.3c-2.7.1-5.5-.5-8,.5s-9.6,8.6-11.3,10.2c-11.5,10.8-22.1,22.7-33.2,34s-20.5,18.7-21.3,21.6.4,5.9,4.1,7c20.6,6,47.2,7.3,68.7,12,2.9.6,9.6,1.5,10.5,4.6v1.8s-14.8,34.6-14.8,34.6l.2.9c27.2,29,56.1,56.3,84.6,83.9s7,5.2,8.6,7.1-.1,5.5,5.6,4.1,16.9-7.8,23.7-10.6,10.2-4.4,11.4-3.6c1.4,1.8,2,3.9,2.6,6,6.3,22.2,6.6,49.9,13.4,71.6s9.9,4.4,15.4-.4c12.8-11.3,27.4-26.7,39.3-39.3,4.3-4.6,16.1-16,18.6-20.7s1.5-3.8,1.5-6.5c-.5-18.4-4.5-38.5-5.8-57.1-.2-2.4-.1-4.9-.2-7.3,32.6-34.4,66.3-69.8,85.3-114,14.1-32.8,25.9-70.5,34.8-105.1,2.6-10,8.1-27.7,8.5-37.3s-7.5-13.4-17.1-12.8ZM174.6,365.4c-20.9-3-41.3,16.1-51.6,32.7-5.4,8.7-10,18.7-9,29.2.4.4,6.9-3.4,7.8-4,18.9-11.8,36.7-29.5,53.6-44.2,1.2-1,5.6-3.9,6.1-4.6.7-1.1.2-1.1-.4-1.8-1.7-2.4-5.4-4.2-6.6-7.3ZM112.6,495.1c34.9-11.5,72.1-36,92.4-67.2,5.1-7.8,15.1-26.7,1.9-31.7-13.9-5.2-35.8,12.6-45.4,21.8-22.4,21.5-36,49.2-48.9,77.1ZM179.7,496.6c11,.5,22.3-4.7,31.6-10.1,13.3-7.7,25.4-19.4,31.1-33.9,1.4-3.6,4.6-14.2,2.6-17.4s-6.2-5.6-7.2-6.4-3.4-2.8-3.9-2.6c-19.2,22.5-37.2,46.2-54.3,70.4Z"/>
        <path class="st0" d="M112.6,495.1c12.9-27.9,26.5-55.6,48.9-77.1,9.5-9.1,31.5-27,45.4-21.8,13.2,5,3.2,23.9-1.9,31.7-20.2,31.2-57.5,55.7-92.4,67.2Z"/>
        <path class="st0" d="M179.7,496.6c17.1-24.2,35-47.8,54.3-70.4.5-.2,3.3,2,3.9,2.6,1,.8,6.9,6,7.2,6.4,2,3.2-1.2,13.8-2.6,17.4-5.7,14.5-17.8,26.2-31.1,33.9-9.3,5.4-20.6,10.7-31.6,10.1Z"/>
        <path class="st0" d="M174.6,365.4c1.2,3.1,4.9,4.9,6.6,7.3s1.1.8.4,1.8-4.9,3.6-6.1,4.6c-16.9,14.7-34.7,32.4-53.6,44.2-.9.5-7.4,4.4-7.8,4-1-10.5,3.6-20.5,9-29.2,10.2-16.6,30.6-35.7,51.6-32.7Z"/>
        <g>
          <path class="st0" d="M509.5,93.4c9.6-.7,17.6,1.2,17.1,12.8s-5.9,27.3-8.5,37.3c-8.9,34.6-20.7,72.3-34.8,105.1-19,44.1-52.6,79.6-85.3,114,0,2.4,0,4.9.2,7.3,1.2,18.6,5.3,38.7,5.8,57.1s-.2,4.1-1.5,6.5c-2.5,4.7-14.2,16.1-18.6,20.7-11.9,12.6-26.4,27.9-39.3,39.3s-12,11.1-15.4.4c-6.8-21.6-7.1-49.4-13.4-71.6s-1.3-4.2-2.6-6c-1.2-.8-9.5,2.9-11.4,3.6-6.8,2.8-17.2,9-23.7,10.6s-3.6-1.6-5.6-4.1-6.5-5.2-8.6-7.1c-28.5-27.7-57.4-55-84.6-83.9l-.2-.9,14.8-34.6v-1.8c-.8-3.1-7.6-4-10.5-4.6-21.5-4.7-48.2-5.9-68.7-12s-5.1-3.2-4.1-7,17.7-18,21.3-21.6c11-11.2,21.6-23.1,33.2-34,1.6-1.5,10.4-9.8,11.3-10.2,2.6-1,5.4-.4,8-.5l62.5,8.3c4.4-1.9,7.2-6.2,10.7-9.3,30.2-27.1,58.9-49.6,96.1-66.6,41.4-19,110.8-43.8,155.8-47ZM466.3,221.3c2-1.6,9.3-7.5,8.9-9.7s-.5-1-.7-1.5c-14.1-16.8-29.2-32.7-43.8-49-2.7-3-11.3-15.2-14.3-15.7s-3.6.6-5.5,1.6c-3.4,1.7-17.9,10.8-20.4,13.1s-1.8,1.5-1.9,2.8l26.1,57.5-54-32.7c-1.1-.1-2.1.6-3,1-2.9,1.3-16.5,14.8-18.6,17.8s-1.2,1.4-1.3,2.2c-.3,3.7,10.9,12.8,13.8,15.9,15.7,17.3,30.4,36.7,46.4,53.6s3.1,3.6,4.3,3.6c.9,0,1.2-.6,1.8-1.1,1.5-1.1,11.5-11,12.2-12.1s1-1.4.4-2.5l-40.4-46.4,54.1,31.3c1.5.2,3.9-.9,5.2-1.7s9.8-8.9,9.9-10.1l-28.4-61.6c14.1,15.4,26.7,32.7,42.1,46.7,4.4,1.6,4.9-.9,7.4-2.9ZM325.9,217.5c-9.1,9.2-19.5,17.2-28.7,26.3-2.2,2.1-12.5,11.7-12.3,14l64.4,70.4c2.3,1.9,4.9-1,6.8-2.5,2.7-2.2,4.8-5.5,7.2-7.8,8.8-8.4,19.1-15.9,27.4-24.7s3.3-3.8,3.1-5.2-5.1-7.1-6.3-8c-3.2-2.6-6-3.5-9.7-1.1l-21.6,19.2c-.6.2-1.2.1-1.8,0-2.4-.5-14.3-12.4-13.1-14.9,2.5-5,19.8-13.9,20.4-18.3s0-1.3-.1-1.9c-.4-1.4-10.7-11.3-12.4-11.3-2.5,0-8,7-10.3,9-3.5,3.1-7.5,6-11.2,8.8-1.2.1-12.5-11.5-13-13.3s-.1-1.1,0-1.8c.3-1.6,8-8.5,9.9-10.2,3.1-2.8,13.4-9.5,14.2-13s-8.6-14.7-12.9-13.6ZM253.8,283.2c-1,.2-1.5.8-2.3,1.3-1.4,1-11,10.1-12.1,11.5s-1,1.6-1.1,2.5c-.6,4.6,7.2,16.9,9.4,21.9,8.7,19.7,15.7,40.7,25,60s4.4,9.8,6.1,10.3c3.7,1.5,15.6-10.3,15.8-12.5-1.1-4.5-8.1-14-6.9-18.3s20-15.6,23.4-18.8c4.7-1.6,12.6,8.6,16,8.3s4.4-2.5,5.3-3.3c1.8-1.4,11.3-9.3,11.2-10.6-.2-2.8-11.3-9.6-14.1-11.4-19.3-12.2-47.6-29.9-68-39.1-2.4-1.1-5.1-2.5-7.8-1.9Z"/>
          <g>
            <path d="M466.3,221.3c-2.5,2-3,4.5-7.4,2.9-15.4-14.1-28-31.3-42.1-46.7l28.4,61.6c-.1,1.1-8.5,9.2-9.9,10.1s-3.7,1.9-5.2,1.7l-54.1-31.3,40.4,46.4c.6,1.1.2,1.6-.4,2.5s-10.7,11-12.2,12.1-1,1.1-1.8,1.1c-1.2,0-3.4-2.6-4.3-3.6-16-16.8-30.7-36.3-46.4-53.6s-14.1-12.3-13.8-15.9.8-1.6,1.3-2.2c2.1-3,15.8-16.5,18.6-17.8s2-1.1,3-1l54,32.7-26.1-57.5c.1-1.3,1-2,1.9-2.8,2.5-2.3,17-11.4,20.4-13.1s3.2-2,5.5-1.6,11.6,12.7,14.3,15.7c14.6,16.4,29.7,32.2,43.8,49,.3.5.7,1,.7,1.5.3,2.2-6.9,8.1-8.9,9.7Z"/>
            <path d="M325.9,217.5c4.4-1,13.9,9.2,12.9,13.6s-11,10.3-14.2,13-9.6,8.6-9.9,10.2-.2,1.1,0,1.8c.5,1.7,11.8,13.4,13,13.3,3.7-2.8,7.7-5.7,11.2-8.8s7.8-9,10.3-9,11.9,9.8,12.4,11.3.2,1.3.1,1.9c-.6,4.3-17.9,13.3-20.4,18.3s10.7,14.4,13.1,14.9,1.2.2,1.8,0l21.6-19.2c3.6-2.4,6.5-1.5,9.7,1.1s6.2,6.9,6.3,8-2.1,4.1-3.1,5.2c-8.3,8.8-18.6,16.3-27.4,24.7s-4.5,5.6-7.2,7.8-4.6,4.5-6.8,2.5l-64.4-70.4c-.2-2.2,10.1-11.8,12.3-14,9.3-9.1,19.6-17.1,28.7-26.3Z"/>
            <g>
              <path d="M253.8,283.2c2.7-.6,5.4.8,7.8,1.9,20.4,9.2,48.7,26.9,68,39.1s13.9,8.5,14.1,11.4-9.5,9.3-11.2,10.6-4.4,3.2-5.3,3.3c-3.4.3-11.3-9.9-16-8.3-3.4,3.2-22.5,15.9-23.4,18.8-1.3,4.3,5.7,13.8,6.9,18.3-.2,2.2-12.1,14-15.8,12.5-1.7-.5-5.1-8.2-6.1-10.3-9.2-19.3-16.2-40.3-25-60s-10-17.3-9.4-21.9.5-1.8,1.1-2.5c1.1-1.4,10.7-10.5,12.1-11.5s1.4-1.1,2.3-1.3ZM294.7,329.5l-29.3-17.8,12.9,30c1.4,1.3,13.6-12,16.4-12.1Z"/>
              <path class="st0" d="M294.7,329.5c-2.8.1-15,13.5-16.4,12.1l-12.9-30,29.3,17.8Z"/>
            </g>
          </g>
        </g>
      </g>
    </g>
  </g>
  <g id="Layer_3">
    <rect class="st1" width="600" height="600" rx="120.1" ry="120.1"/>
  </g>
  <g id="Layer_1_copy">
    <g class="st2">
      <g>
        <path class="st0" d="M509.5,93.4c9.6-.7,17.6,1.2,17.1,12.8s-5.9,27.3-8.5,37.3c-8.9,34.6-20.7,72.3-34.8,105.1-19,44.1-52.6,79.6-85.3,114,0,2.4,0,4.9.2,7.3,1.2,18.6,5.3,38.7,5.8,57.1s-.2,4.1-1.5,6.5c-2.5,4.7-14.2,16.1-18.6,20.7-11.9,12.6-26.4,27.9-39.3,39.3s-12,11.1-15.4.4c-6.8-21.6-7.1-49.4-13.4-71.6s-1.3-4.2-2.6-6c-1.2-.8-9.5,2.9-11.4,3.6-6.8,2.8-17.2,9-23.7,10.6s-3.6-1.6-5.6-4.1-6.5-5.2-8.6-7.1c-28.5-27.7-57.4-55-84.6-83.9l-.2-.9,14.8-34.6v-1.8c-.8-3.1-7.6-4-10.5-4.6-21.5-4.7-48.2-5.9-68.7-12s-5.1-3.2-4.1-7,17.7-18,21.3-21.6c11-11.2,21.6-23.1,33.2-34,1.6-1.5,10.4-9.8,11.3-10.2,2.6-1,5.4-.4,8-.5l62.5,8.3c4.4-1.9,7.2-6.2,10.7-9.3,30.2-27.1,58.9-49.6,96.1-66.6,41.4-19,110.8-43.8,155.8-47ZM466.3,221.3c2-1.6,9.3-7.5,8.9-9.7s-.5-1-.7-1.5c-14.1-16.8-29.2-32.7-43.8-49-2.7-3-11.3-15.2-14.3-15.7s-3.6.6-5.5,1.6c-3.4,1.7-17.9,10.8-20.4,13.1s-1.8,1.5-1.9,2.8l26.1,57.5-54-32.7c-1.1-.1-2.1.6-3,1-2.9,1.3-16.5,14.8-18.6,17.8s-1.2,1.4-1.3,2.2c-.3,3.7,10.9,12.8,13.8,15.9,15.7,17.3,30.4,36.7,46.4,53.6s3.1,3.6,4.3,3.6c.9,0,1.2-.6,1.8-1.1,1.5-1.1,11.5-11,12.2-12.1s1-1.4.4-2.5l-40.4-46.4,54.1,31.3c1.5.2,3.9-.9,5.2-1.7s9.8-8.9,9.9-10.1l-28.4-61.6c14.1,15.4,26.7,32.7,42.1,46.7,4.4,1.6,4.9-.9,7.4-2.9ZM325.9,217.5c-9.1,9.2-19.5,17.2-28.7,26.3-2.2,2.1-12.5,11.7-12.3,14l64.4,70.4c2.3,1.9,4.9-1,6.8-2.5,2.7-2.2,4.8-5.5,7.2-7.8,8.8-8.4,19.1-15.9,27.4-24.7s3.3-3.8,3.1-5.2-5.1-7.1-6.3-8c-3.2-2.6-6-3.5-9.7-1.1l-21.6,19.2c-.6.2-1.2.1-1.8,0-2.4-.5-14.3-12.4-13.1-14.9,2.5-5,19.8-13.9,20.4-18.3s0-1.3-.1-1.9c-.4-1.4-10.7-11.3-12.4-11.3-2.5,0-8,7-10.3,9-3.5,3.1-7.5,6-11.2,8.8-1.2.1-12.5-11.5-13-13.3s-.1-1.1,0-1.8c.3-1.6,8-8.5,9.9-10.2,3.1-2.8,13.4-9.5,14.2-13s-8.6-14.7-12.9-13.6ZM253.8,283.2c-1,.2-1.5.8-2.3,1.3-1.4,1-11,10.1-12.1,11.5s-1,1.6-1.1,2.5c-.6,4.6,7.2,16.9,9.4,21.9,8.7,19.7,15.7,40.7,25,60s4.4,9.8,6.1,10.3c3.7,1.5,15.6-10.3,15.8-12.5-1.1-4.5-8.1-14-6.9-18.3s20-15.6,23.4-18.8c4.7-1.6,12.6,8.6,16,8.3s4.4-2.5,5.3-3.3c1.8-1.4,11.3-9.3,11.2-10.6-.2-2.8-11.3-9.6-14.1-11.4-19.3-12.2-47.6-29.9-68-39.1-2.4-1.1-5.1-2.5-7.8-1.9Z"/>
        <g>
          <path d="M466.3,221.3c-2.5,2-3,4.5-7.4,2.9-15.4-14.1-28-31.3-42.1-46.7l28.4,61.6c-.1,1.1-8.5,9.2-9.9,10.1s-3.7,1.9-5.2,1.7l-54.1-31.3,40.4,46.4c.6,1.1.2,1.6-.4,2.5s-10.7,11-12.2,12.1-1,1.1-1.8,1.1c-1.2,0-3.4-2.6-4.3-3.6-16-16.8-30.7-36.3-46.4-53.6s-14.1-12.3-13.8-15.9.8-1.6,1.3-2.2c2.1-3,15.8-16.5,18.6-17.8s2-1.1,3-1l54,32.7-26.1-57.5c.1-1.3,1-2,1.9-2.8,2.5-2.3,17-11.4,20.4-13.1s3.2-2,5.5-1.6,11.6,12.7,14.3,15.7c14.6,16.4,29.7,32.2,43.8,49,.3.5.7,1,.7,1.5.3,2.2-6.9,8.1-8.9,9.7Z"/>
          <path d="M325.9,217.5c4.4-1,13.9,9.2,12.9,13.6s-11,10.3-14.2,13-9.6,8.6-9.9,10.2-.2,1.1,0,1.8c.5,1.7,11.8,13.4,13,13.3,3.7-2.8,7.7-5.7,11.2-8.8s7.8-9,10.3-9,11.9,9.8,12.4,11.3.2,1.3.1,1.9c-.6,4.3-17.9,13.3-20.4,18.3s10.7,14.4,13.1,14.9,1.2.2,1.8,0l21.6-19.2c3.6-2.4,6.5-1.5,9.7,1.1s6.2,6.9,6.3,8-2.1,4.1-3.1,5.2c-8.3,8.8-18.6,16.3-27.4,24.7s-4.5,5.6-7.2,7.8-4.6,4.5-6.8,2.5l-64.4-70.4c-.2-2.2,10.1-11.8,12.3-14,9.3-9.1,19.6-17.1,28.7-26.3Z"/>
          <g>
            <path d="M253.8,283.2c2.7-.6,5.4.8,7.8,1.9,20.4,9.2,48.7,26.9,68,39.1s13.9,8.5,14.1,11.4-9.5,9.3-11.2,10.6-4.4,3.2-5.3,3.3c-3.4.3-11.3-9.9-16-8.3-3.4,3.2-22.5,15.9-23.4,18.8-1.3,4.3,5.7,13.8,6.9,18.3-.2,2.2-12.1,14-15.8,12.5-1.7-.5-5.1-8.2-6.1-10.3-9.2-19.3-16.2-40.3-25-60s-10-17.3-9.4-21.9.5-1.8,1.1-2.5c1.1-1.4,10.7-10.5,12.1-11.5s1.4-1.1,2.3-1.3ZM294.7,329.5l-29.3-17.8,12.9,30c1.4,1.3,13.6-12,16.4-12.1Z"/>
            <path class="st0" d="M294.7,329.5c-2.8.1-15,13.5-16.4,12.1l-12.9-30,29.3,17.8Z"/>
          </g>
        </g>
      </g>
    </g>
    <g>
      <path class="st0" d="M223.9,398c-15,17.4-29,35.6-42.5,54.2,8.2.1,16.9-4.1,24-8.4,10.1-6.1,19.5-15.2,24.2-26.2,1.2-2.7,3.8-10.7,2.4-13.1-.2-.3-4.5-4.1-5.2-4.6-.5-.4-2.5-2-2.9-1.8Z"/>
      <path class="st0" d="M438.9,141.3c-33.9,3.5-86.5,23.9-118.1,39.1-28.4,13.7-50.5,31.3-73.8,52.4-2.7,2.5-4.9,5.7-8.3,7.3l-46.7-4.7c-2,.2-4.1-.2-6,.6-.7.3-7.5,6.7-8.7,7.9-8.9,8.4-17.2,17.6-25.7,26.3-2.7,2.8-15.8,14.6-16.5,16.7-.9,2.9.2,4.5,2.9,5.2,15.3,4,35.3,4.3,51.3,7.3,2.1.4,7.2.9,7.7,3.2v1.4s-12,26.3-12,26.3v.7c12.5,13.2,25.3,25.9,38.3,38.4,12.6,13,25.2,25.8,38.4,38.1h.7c0,.1,26.3-11.8,26.3-11.8h1.4c2.3.5,2.8,5.6,3.2,7.7,3,16.1,3.3,36,7.3,51.3.7,2.7,2.3,3.7,5.2,2.9,2.2-.6,13.9-13.7,16.7-16.5,8.7-8.6,17.9-16.8,26.3-25.7,1.2-1.3,7.6-8,7.9-8.7.8-2,.4-4,.6-6l-4.7-46.7c1.6-3.4,4.8-5.5,7.3-8.3,21.1-23.4,38.7-45.4,52.4-73.8,15.3-31.6,35.6-84.2,39.1-118.1.4-4.3.2-8.2-1.9-10.5-2.3-2.1-6.1-2.4-10.5-1.9Z"/>
      <path class="st0" d="M186.1,360.2c-17.4,15-35.6,29-54.2,42.5-.1-8.2,4.1-16.9,8.4-24,6.1-10.1,15.2-19.5,26.2-24.2,2.7-1.2,10.7-3.8,13.1-2.4.3.2,4.1,4.5,4.6,5.2.4.5,2,2.5,1.8,2.9Z"/>
      <path class="st0" d="M184.1,382c-23.7,15.9-43,44.2-52.5,70.5,26.3-9.6,54.6-28.8,70.5-52.5,3.6-5.4,10.4-17.7,4.6-22.6-4.9-5.9-17.2,1-22.6,4.6Z"/>
    </g>
  </g>
</svg>